PathFileType	4	(X/Y/Z)	OpenSim_Sub07_EMGStiffKnee_Magnet.trc
DataRate	CameraRate	NumFrames	NumMarkers	Units	OrigDataRate	OrigDataStartFrame	OrigNumFrames
100	100	27	8	m	100	1	7388
Frame#	Time	torso_imu_offset_imu	pelvis_imu_offset_imu	tibia_r_imu_offset_imu	femur_r_imu_offset_imu	tibia_l_imu_offset_imu	femur_l_imu_offset_imu	toes_r_imu_offset_imu	toes_l_imu_offset_imu
				X1	Y1	Z1	X2	Y2	Z2	X3	Y3	Z3	X4	Y4	Z4	X5	Y5	Z5	X6	Y6	Z6	X7	Y7	Z7	X8		Y8	Z8	

1	0	0.93653767	0.19861697	-0.03459180	-0.75117326	0.18416395	-0.57932148	-0.52838166	-0.64643232	0.05616131	-0.76976087	-0.37151548	-0.16782127	-0.61833929	0.52980653	0.18402577	-0.66391359	0.24164051	0.47641610	-0.68760314	-0.36315465	-0.39586987	-0.72445933	-0.21284310	-0.40318280
2	0.01000000	0.93577540	0.19516100	-0.03587754	-0.74760130	0.18725320	-0.57567655	-0.52966882	-0.64572258	0.05403273	-0.76870716	-0.37984937	-0.16263275	-0.62215256	0.53378661	0.18126656	-0.66665415	0.23946997	0.48138294	-0.68396151	-0.36618747	-0.39338961	-0.73049389	-0.21150867	-0.39941004
3	0.02000000	0.93557218	0.19583435	-0.03354227	-0.74549973	0.18375709	-0.57098158	-0.53060320	-0.64393425	0.05490939	-0.77071871	-0.37714325	-0.16645944	-0.62430057	0.53171109	0.18128122	-0.66327696	0.24263967	0.47923996	-0.68233360	-0.36351811	-0.39556985	-0.72477858	-0.21426557	-0.40129597
4	0.03000000	0.94056459	0.19551900	-0.03128049	-0.74860273	0.18533290	-0.57457560	-0.52681880	-0.64112013	0.05376596	-0.76855191	-0.37273676	-0.17097003	-0.62101794	0.53165689	0.18373576	-0.66315949	0.24218512	0.47463705	-0.68165951	-0.36522786	-0.39917980	-0.72713388	-0.20808948	-0.40417811
5	0.04000000	0.93878369	0.19696795	-0.03406823	-0.74990849	0.18950020	-0.57311254	-0.52492910	-0.64589167	0.05612147	-0.76778412	-0.37302689	-0.16706787	-0.62052029	0.53217402	0.18455401	-0.66521959	0.23951010	0.48011147	-0.68176969	-0.36504831	-0.39558197	-0.72432189	-0.20968962	-0.40828705
6	0.05000000	0.93238633	0.19613367	-0.03693746	-0.75517778	0.18712559	-0.57552681	-0.52743416	-0.64556435	0.05518928	-0.77342306	-0.37516729	-0.16473902	-0.62382486	0.53146033	0.18223621	-0.66859366	0.24114374	0.47900419	-0.67968869	-0.36065451	-0.39220048	-0.72690670	-0.21301511	-0.40472048
7	0.06000000	0.93433240	0.19414932	-0.03543538	-0.75534784	0.19103640	-0.57385543	-0.53031272	-0.64107239	0.05663893	-0.76649967	-0.37637515	-0.16008726	-0.62291773	0.53265356	0.18262172	-0.66546349	0.23855059	0.47665825	-0.68472475	-0.36073449	-0.39445843	-0.72908950	-0.21670335	-0.40387547
8	0.07000000	0.93526912	0.19525557	-0.03564010	-0.74411812	0.18502187	-0.57266865	-0.52827198	-0.64539355	0.05677591	-0.76701230	-0.37249090	-0.16469463	-0.61988539	0.53609322	0.17873932	-0.66059960	0.23991653	0.48335100	-0.68026562	-0.36245820	-0.39380194	-0.72559515	-0.21379286	-0.40899416
9	0.08000000	0.93238252	0.19367808	-0.03871305	-0.74491918	0.18436613	-0.57697649	-0.52483071	-0.64278642	0.05152639	-0.77349214	-0.37444424	-0.16822429	-0.61902017	0.53188843	0.18548116	-0.66632917	0.23864552	0.48488010	-0.68288346	-0.36125159	-0.39459181	-0.72660759	-0.21122465	-0.40636033
10	0.09000000	0.93620760	0.19725534	-0.03577847	-0.74721386	0.18757759	-0.57949796	-0.53174198	-0.64016812	0.05293453	-0.77114813	-0.37494427	-0.17058791	-0.61819625	0.52649736	0.18538978	-0.66590652	0.24064622	0.48080902	-0.68559470	-0.36003990	-0.39182322	-0.73019782	-0.20986876	-0.40530468
11	0.10000000	0.94046650	0.19556186	-0.03697539	-0.74502077	0.18359829	-0.57512873	-0.53029058	-0.64407271	0.05509547	-0.76654385	-0.37262540	-0.17178273	-0.62624752	0.53213812	0.18032294	-0.66445146	0.23962676	0.47375822	-0.68115069	-0.36503008	-0.39217311	-0.72844780	-0.21214981	-0.41220937
12	0.11000000	0.93854065	0.19636207	-0.03521685	-0.74546883	0.18334558	-0.57761068	-0.52801888	-0.64331467	0.05359236	-0.76812394	-0.37504030	-0.17314451	-0.62590343	0.52987098	0.18366301	-0.66405257	0.23712609	0.48302269	-0.67765325	-0.36709297	-0.39504800	-0.72673355	-0.21901823	-0.40274158
13	0.12000000	0.93359717	0.19716091	-0.03408717	-0.75067585	0.18279294	-0.58022140	-0.52887376	-0.64319440	0.05677040	-0.77007346	-0.37742519	-0.17219914	-0.61984636	0.53164603	0.18244178	-0.66631841	0.23649499	0.48552731	-0.67811578	-0.36368861	-0.39171747	-0.72745127	-0.21793391	-0.40265445
14	0.13000000	0.93521391	0.19180379	-0.03484924	-0.75158143	0.18953496	-0.57216545	-0.52470906	-0.64484355	0.05838953	-0.77188205	-0.37375887	-0.17033644	-0.62231123	0.52927419	0.18287567	-0.66812345	0.23887219	0.48083708	-0.68154136	-0.36361506	-0.39041154	-0.72562675	-0.21721345	-0.40177972
15	0.14000000	0.93878937	0.19724668	-0.03635458	-0.74379518	0.18576628	-0.57053300	-0.52654052	-0.64856359	0.05608171	-0.76977359	-0.37015778	-0.16986847	-0.62365462	0.52891853	0.17805655	-0.66248621	0.23615787	0.48142873	-0.68252814	-0.36175533	-0.38879599	-0.72702219	-0.21571100	-0.40115199
16	0.15000000	0.94021203	0.19805023	-0.03324298	-0.74771239	0.18296428	-0.57373503	-0.52863868	-0.64590177	0.05322052	-0.76742469	-0.36892767	-0.16408965	-0.62146631	0.52837037	0.17768347	-0.66439232	0.23518173	0.48036463	-0.68500818	-0.36281126	-0.39365345	-0.72667466	-0.21518110	-0.40707984
17	0.16000000	0.93950797	0.19652957	-0.03658822	-0.74757952	0.19076140	-0.57453734	-0.52877345	-0.64284585	0.05202396	-0.77115978	-0.36945209	-0.16717609	-0.61928080	0.53418117	0.18122970	-0.67055583	0.23783651	0.48497405	-0.67809505	-0.35988859	-0.39309265	-0.72443280	-0.21213019	-0.40494749
18	0.17000000	0.94002279	0.19763704	-0.03793887	-0.74280571	0.18344361	-0.57691588	-0.52449050	-0.64352992	0.05276194	-0.76936610	-0.36798498	-0.17013564	-0.62647645	0.53188308	0.18392072	-0.66439261	0.23520671	0.47831059	-0.68039239	-0.35986601	-0.39295305	-0.73039948	-0.21225594	-0.40355946
19	0.18000000	0.93996817	0.19847530	-0.03662885	-0.74687084	0.18370959	-0.57765131	-0.52765573	-0.64277541	0.05523557	-0.76967345	-0.36873552	-0.17000710	-0.62587495	0.53050208	0.17922537	-0.66214040	0.23759888	0.48021217	-0.68579508	-0.36520410	-0.39277544	-0.72944470	-0.21329003	-0.40414320
20	0.19000000	0.93808992	0.19694614	-0.03552443	-0.75134771	0.18583864	-0.57661809	-0.52988063	-0.64010721	0.05304834	-0.77277494	-0.37107298	-0.16855189	-0.62419647	0.53190285	0.17856358	-0.66556478	0.23542686	0.47765211	-0.68592410	-0.36335384	-0.38919054	-0.72863313	-0.21010004	-0.40258105
21	0.20000000	0.93630471	0.19989272	-0.03400759	-0.74906146	0.18410672	-0.57731018	-0.53066713	-0.64001874	0.05229564	-0.76947928	-0.36849744	-0.16843741	-0.62488574	0.53271328	0.18216165	-0.66305446	0.23255940	0.48110274	-0.68263600	-0.36132181	-0.39085742	-0.72736806	-0.21001482	-0.40305858
22	0.21000000	0.94075330	0.19656085	-0.03551974	-0.74625145	0.18243543	-0.57180679	-0.52724929	-0.64625195	0.05165409	-0.77237462	-0.37039844	-0.16836563	-0.62317629	0.52882876	0.18170211	-0.66708945	0.23644968	0.48479620	-0.68469361	-0.36446506	-0.39234452	-0.72596728	-0.21730899	-0.40654144
23	0.22000000	0.93930009	0.19600337	-0.03425956	-0.75006325	0.18019337	-0.57137657	-0.52771358	-0.65001540	0.05394476	-0.76923881	-0.37022093	-0.16371396	-0.62340541	0.53183083	0.18146729	-0.66666241	0.23640796	0.47828388	-0.68716300	-0.36325909	-0.39182993	-0.72585003	-0.21717570	-0.40586235
24	0.23000000	0.94029741	0.19991880	-0.02994801	-0.74967095	0.18301123	-0.57694500	-0.53185753	-0.64487316	0.05268513	-0.76937402	-0.37094576	-0.16240779	-0.62194401	0.53196697	0.18261000	-0.66500363	0.23408849	0.48065316	-0.68488501	-0.35857239	-0.39300075	-0.72544015	-0.21001350	-0.40604518
25	0.24000000	0.93832989	0.20135587	-0.03224019	-0.74805930	0.18518584	-0.57798702	-0.52882038	-0.64106876	0.04988475	-0.77361788	-0.37224885	-0.16447825	-0.61821443	0.52780579	0.18313211	-0.66113102	0.23280732	0.48228749	-0.68481509	-0.36383402	-0.39356615	-0.72478504	-0.21177634	-0.40599293
26	0.25000000	0.93827000	0.19511752	-0.02906026	-0.74457052	0.18578171	-0.57002178	-0.52789386	-0.64549217	0.05489084	-0.77047738	-0.36924684	-0.16870804	-0.62484829	0.53360808	0.17665343	-0.66435688	0.23698161	0.48111714	-0.68265658	-0.36400899	-0.39158675	-0.73059180	-0.21045523	-0.40601909
27	0.26000000	0.93586369	0.19532196	-0.03023365	-0.74698691	0.18328004	-0.57080024	-0.53070347	-0.64148197	0.05341302	-0.77406434	-0.37216562	-0.17017706	-0.62633442	0.52895166	0.17713822	-0.66503021	0.23468033	0.47863157	-0.68369514	-0.36538118	-0.39317368	-0.72823527	-0.20942428	-0.40596669
